<svg xmlns="http://www.w3.org/2000/svg" xmlns:xlink="http://www.w3.org/1999/xlink" version="1.1" id="Layer_1" x="0px" y="0px" viewBox="0 0 3373 1000" xml:space="preserve" enable-background="new 0 0 3373 1000">
  <style type="text/css">
    
	.st0{fill:#fff;}

  </style>
  <path id="Figure" class="st0" d="M816.7 306.8c-25.3-11.3-51.2-21.4-77.9-30 -21.1-6.8-42.6-12.8-64.4-17.8 -55.3-12.7-112.9-19.4-172-19.4 -59.6 0-117.5 6.8-173.2 19.6 -20.3 4.7-40.2 10.2-59.9 16.4 2.5 21 5.8 41.8 10 62.3 27.6 135.1 90.6 257.2 178.9 356.3 14.6 16.5 30 32.3 46 47.4 14.9-14.1 29.2-28.7 42.9-43.9 76.4-84.7 134.2-186.6 166.9-299.1 -20.8-7-42-13.1-63.6-18.1C620.8 481.7 569.2 573.5 501 650.2c-80.7-91.7-137.9-204.5-162.5-329.1C391.1 308.6 446 302 502.4 302c56 0 110.4 6.5 162.6 18.9 21.6 5.1 42.9 11.2 63.7 18.2 27.5 9.3 54.2 20.3 80.1 32.8 -33.4 197.4-149.2 366.7-310.7 471.5C307.2 716.8 181.3 500 181.3 253.7c0-11 0.3-22 0.8-33 96.1-49 205-76.7 320.3-76.7 60.7 0 119.6 7.7 175.9 22.2 0.1 5.7 0.2 11.5 0.2 17.3 0 4.3-0.1 8.5-0.2 12.8 22.3 4.6 44.1 10.1 65.6 16.6 0.3-8.7 0.6-17.4 0.6-26.2 0-1.1 0-2.1 0-3.2 0-21.4-0.9-42.7-2.7-63.7 -22.3-7.3-45-13.6-68.2-18.9 -55.1-12.6-112.4-19.3-171.3-19.3 -111.6 0-217.6 23.8-313.3 66.6 -22.5 10.1-44.5 21.2-65.8 33.3 -2.2 23.7-3.4 47.8-3.4 72.1 0 0.9 0 1.9 0 2.8 0.9 255.7 126.7 481.9 319.6 620.9 20.2 14.6 41.2 28.2 62.8 40.8 20.1-11.7 39.7-24.3 58.6-37.7 156.7-111.3 269.8-280 308.8-475.4 4.4-21.8 7.8-43.9 10.2-66.3C859.5 327.2 838.4 316.5 816.7 306.8z"/>
  <g id="Text">
    <path class="st0" d="M1250.6 550.4h-72.1l-17.8 52h-46l84.5-236.5h33.9l84.5 236.5h-48.3L1250.6 550.4zM1190.3 513.5h50.3l-17.4-52.3 -7-36.9h-1.7l-7 37.2L1190.3 513.5z"/>
    <path class="st0" d="M1381.8 546c0 7.8 1 13.5 3 17.1 2 3.6 5.3 5.4 9.7 5.4 2.7 0 5.3-0.2 7.9-0.7 2.6-0.4 5.8-1.5 9.6-3l4.7 34.2c-3.6 1.8-9.1 3.6-16.4 5.4 -7.4 1.8-15 2.7-22.8 2.7 -12.7 0-22.5-3-29.2-8.9 -6.7-5.9-10.1-15.7-10.1-29.3V367.6h43.6V546z"/>
    <path class="st0" d="M1420 434.7h23.1v-9.4c0-21.2 4.5-36.6 13.4-46.1 8.9-9.5 21.9-14.3 38.9-14.3 17.9 0 32.8 2.1 44.6 6.4l-8.4 34.9c-5.1-1.8-9.7-3-13.6-3.5 -3.9-0.6-8-0.8-12.2-0.8 -4.5 0-8 0.7-10.6 2 -2.6 1.3-4.5 3.4-5.7 6.2 -1.2 2.8-2 6.3-2.3 10.4 -0.3 4.1-0.5 8.9-0.5 14.3h36.9v36.9h-36.9v130.8h-43.6V471.6H1420V434.7z"/>
    <path class="st0" d="M1542.1 444.4c8.9-4 19.6-7.2 31.9-9.6 12.3-2.3 25.2-3.5 38.6-3.5 11.6 0 21.4 1.4 29.2 4.2 7.8 2.8 14 6.8 18.6 11.9 4.6 5.1 7.8 11.3 9.7 18.4 1.9 7.2 2.9 15.2 2.9 24.1 0 9.8-0.3 19.7-1 29.7 -0.7 10-1.1 19.7-1.2 29.3 -0.1 9.6 0.2 19 0.8 28s2.3 17.6 5 25.7h-35.6l-7-23.1h-1.7c-4.5 6.9-10.7 12.9-18.6 17.9 -7.9 5-18.2 7.5-30.7 7.5 -7.8 0-14.9-1.2-21.1-3.5 -6.3-2.3-11.6-5.7-16.1-10.1 -4.5-4.4-7.9-9.5-10.4-15.4 -2.5-5.9-3.7-12.6-3.7-20 0-10.3 2.3-19 6.9-26 4.6-7 11.2-12.7 19.8-17.1 8.6-4.4 18.9-7.4 30.9-9.1 12-1.7 25.3-2.2 40.1-1.5 1.6-12.5 0.7-21.5-2.7-27 -3.4-5.5-10.8-8.2-22.5-8.2 -8.7 0-17.9 0.9-27.7 2.7 -9.7 1.8-17.7 4.1-24 7L1542.1 444.4zM1597.5 569.2c8.7 0 15.6-2 20.8-5.9 5.1-3.9 8.9-8.1 11.4-12.6v-21.8c-6.9-0.7-13.6-0.8-20-0.3 -6.4 0.5-12 1.5-16.9 3 -4.9 1.6-8.8 3.8-11.7 6.7 -2.9 2.9-4.4 6.6-4.4 11.1 0 6.3 1.8 11.1 5.5 14.6C1585.9 567.5 1591 569.2 1597.5 569.2z"/>
    <path class="st0" d="M1795.4 369.9c9.4-1.8 19.7-3.2 31-4.2 11.3-1 22.5-1.5 33.7-1.5 11.6 0 23.3 1 35.1 2.9 11.7 1.9 22.3 5.7 31.7 11.4 9.4 5.7 17 13.6 23 23.8 5.9 10.2 8.9 23.4 8.9 39.7 0 14.8-2.6 27.2-7.7 37.4 -5.1 10.2-12 18.5-20.5 25 -8.5 6.5-18.2 11.2-29 14.1 -10.8 2.9-22.1 4.4-33.7 4.4 -1.1 0-2.9 0-5.4 0 -2.5 0-5-0.1-7.7-0.2 -2.7-0.1-5.3-0.3-7.9-0.5 -2.6-0.2-4.4-0.4-5.5-0.7v80.8h-46V369.9zM1863.8 403.8c-4.5 0-8.7 0.2-12.7 0.5 -4 0.3-7.3 0.7-9.7 1.2v76.1c0.9 0.2 2.2 0.5 4 0.7 1.8 0.2 3.7 0.4 5.7 0.5 2 0.1 4 0.2 5.9 0.2 1.9 0 3.3 0 4.2 0 6 0 12-0.6 17.9-1.7 5.9-1.1 11.2-3.2 15.9-6.2 4.7-3 8.4-7.2 11.2-12.6 2.8-5.4 4.2-12.4 4.2-21.1 0-7.4-1.3-13.5-4-18.3 -2.7-4.8-6.2-8.7-10.6-11.6 -4.4-2.9-9.3-4.9-14.9-6C1875.3 404.4 1869.6 403.8 1863.8 403.8z"/>
    <path class="st0" d="M2069.1 475.6c-6.9-2.5-13.2-3.7-18.8-3.7 -7.8 0-14.4 2.1-19.6 6.2 -5.3 4.1-8.8 9.4-10.6 15.9v108.3h-43.6V434.7h33.9l5 22.1h1.3c3.8-8.3 8.9-14.6 15.4-19.1 6.5-4.5 14.1-6.7 22.8-6.7 5.8 0 12.4 1.2 19.8 3.7L2069.1 475.6z"/>
    <path class="st0" d="M2086.2 518.5c0-28.4 6.9-50.3 20.8-65.6 13.9-15.3 33.3-23 58.4-23 13.4 0 25 2.1 34.9 6.4 9.8 4.3 18 10.2 24.5 17.9 6.5 7.7 11.3 17.1 14.6 28 3.2 11 4.9 23 4.9 36.2 0 28.4-6.9 50.3-20.6 65.6 -13.8 15.3-33.2 23-58.2 23 -13.4 0-25-2.1-34.9-6.4 -9.8-4.2-18.1-10.2-24.7-17.9 -6.6-7.7-11.5-17-14.8-28C2087.8 543.8 2086.2 531.7 2086.2 518.5zM2131.1 518.5c0 7.4 0.7 14.2 2 20.5 1.3 6.3 3.4 11.7 6 16.4 2.7 4.7 6.2 8.3 10.6 10.9 4.4 2.6 9.6 3.9 15.6 3.9 11.4 0 19.9-4.1 25.5-12.4 5.6-8.3 8.4-21.4 8.4-39.2 0-15.4-2.6-27.9-7.7-37.4 -5.1-9.5-13.9-14.3-26.2-14.3 -10.7 0-19.1 4-25.2 12.1C2134.1 487 2131.1 500.2 2131.1 518.5z"/>
    <path class="st0" d="M2256.9 434.7h23.1v-31.5l43.6-12.4v43.9h40.9v36.9h-40.9V536c0 11.6 1.2 20 3.5 25 2.3 5 6.8 7.5 13.2 7.5 4.5 0 8.3-0.4 11.6-1.3 3.2-0.9 6.9-2.2 10.9-4l7.7 33.5c-6 2.9-13.1 5.4-21.1 7.4 -8 2-16.2 3-24.5 3 -15.4 0-26.8-4-34-11.9 -7.3-7.9-10.9-21-10.9-39.1v-84.5h-23.1V434.7z"/>
    <path class="st0" d="M2523.9 588c-6.7 5.4-15.8 9.9-27.3 13.6 -11.5 3.7-23.8 5.5-36.7 5.5 -27.1 0-46.8-7.9-59.4-23.6 -12.5-15.8-18.8-37.4-18.8-64.9 0-29.5 7-51.7 21.1-66.4s33.9-22.1 59.4-22.1c8.5 0 16.8 1.1 24.8 3.4 8 2.2 15.2 5.9 21.5 11.1 6.3 5.1 11.3 12.1 15.1 20.8 3.8 8.7 5.7 19.6 5.7 32.5 0 4.7-0.3 9.7-0.8 15.1 -0.6 5.4-1.4 11-2.5 16.8h-100.3c0.7 14.1 4.3 24.7 10.9 31.9 6.6 7.2 17.2 10.7 31.9 10.7 9.1 0 17.3-1.4 24.6-4.2 7.2-2.8 12.8-5.6 16.5-8.6L2523.9 588zM2461.6 464.9c-11.3 0-19.7 3.4-25.2 10.2 -5.5 6.8-8.7 15.9-9.8 27.3h62.1c0.9-12.1-0.9-21.4-5.5-27.8C2478.6 468.1 2471.4 464.9 2461.6 464.9z"/>
    <path class="st0" d="M2677.2 592c-6.7 4.9-14.8 8.7-24.3 11.2 -9.5 2.6-19.3 3.9-29.3 3.9 -13.4 0-24.8-2.1-34-6.4 -9.3-4.2-16.8-10.2-22.6-17.9 -5.8-7.7-10-17-12.6-28 -2.6-11-3.9-23-3.9-36.2 0-28.4 6.4-50.3 19.1-65.6 12.7-15.3 31.3-23 55.7-23 12.3 0 22.2 1 29.7 3 7.5 2 14.3 4.6 20.3 7.7l-10.4 35.6c-5.1-2.5-10.2-4.4-15.3-5.7 -5-1.3-10.8-2-17.3-2 -12.1 0-21.2 4-27.5 11.9 -6.3 7.9-9.4 20.6-9.4 38.1 0 7.2 0.8 13.8 2.3 19.8 1.6 6 3.9 11.3 7 15.8 3.1 4.5 7.2 8 12.2 10.6 5 2.6 10.9 3.9 17.6 3.9 7.4 0 13.6-0.9 18.8-2.9 5.1-1.9 9.7-4.2 13.8-6.9L2677.2 592z"/>
    <path class="st0" d="M2686.2 434.7h23.1v-31.5l43.6-12.4v43.9h40.9v36.9H2753V536c0 11.6 1.2 20 3.5 25 2.3 5 6.8 7.5 13.2 7.5 4.5 0 8.3-0.4 11.6-1.3 3.2-0.9 6.9-2.2 10.9-4l7.7 33.5c-6 2.9-13.1 5.4-21.1 7.4 -8 2-16.2 3-24.5 3 -15.4 0-26.8-4-34-11.9 -7.3-7.9-10.9-21-10.9-39.1v-84.5h-23.1V434.7z"/>
    <path class="st0" d="M2818 387.4c0-6.5 2.4-12 7.2-16.6 4.8-4.6 11.5-6.9 20-6.9 8.5 0 15.4 2.3 20.6 6.9 5.3 4.6 7.9 10.1 7.9 16.6 0 6.5-2.6 11.9-7.9 16.3 -5.3 4.4-12.1 6.5-20.6 6.5 -8.5 0-15.2-2.2-20-6.5C2820.4 399.3 2818 393.9 2818 387.4zM2824.4 434.7h43.6v167.7h-43.6V434.7z"/>
    <path class="st0" d="M2902.9 518.5c0-28.4 6.9-50.3 20.8-65.6 13.9-15.3 33.3-23 58.4-23 13.4 0 25 2.1 34.9 6.4 9.8 4.3 18 10.2 24.5 17.9 6.5 7.7 11.3 17.1 14.6 28 3.2 11 4.9 23 4.9 36.2 0 28.4-6.9 50.3-20.6 65.6 -13.8 15.3-33.2 23-58.2 23 -13.4 0-25-2.1-34.9-6.4 -9.8-4.2-18.1-10.2-24.7-17.9 -6.6-7.7-11.5-17-14.8-28C2904.5 543.8 2902.9 531.7 2902.9 518.5zM2947.9 518.5c0 7.4 0.7 14.2 2 20.5 1.3 6.3 3.4 11.7 6 16.4 2.7 4.7 6.2 8.3 10.6 10.9 4.4 2.6 9.6 3.9 15.6 3.9 11.4 0 19.9-4.1 25.5-12.4 5.6-8.3 8.4-21.4 8.4-39.2 0-15.4-2.6-27.9-7.7-37.4 -5.1-9.5-13.9-14.3-26.2-14.3 -10.7 0-19.1 4-25.2 12.1C2950.9 487 2947.9 500.2 2947.9 518.5z"/>
    <path class="st0" d="M3193.7 602.4v-95.3c0-13.6-2-23.5-5.9-29.5 -3.9-6-10.6-9.1-20-9.1 -8.3 0-15.3 2.4-21 7.2 -5.7 4.8-9.8 10.8-12.2 17.9v108.7h-43.6V434.7h34.5l5 22.1h1.3c5.1-7.2 12-13.4 20.5-18.8 8.5-5.4 19.5-8.1 32.9-8.1 8.3 0 15.6 1.1 22.1 3.4 6.5 2.2 12 5.9 16.4 11.1 4.5 5.1 7.8 12.1 10.1 21 2.2 8.8 3.4 19.7 3.4 32.7v104.3H3193.7z"/>
  </g>
</svg>
