<?xml version="1.0" encoding="utf-8"?>
<!-- Generator: Adobe Illustrator 19.2.1, SVG Export Plug-In . SVG Version: 6.00 Build 0)  -->
<svg version="1.1" id="Layer_1" xmlns="http://www.w3.org/2000/svg" xmlns:xlink="http://www.w3.org/1999/xlink" x="0px" y="0px"
	 viewBox="0 0 32 32" style="enable-background:new 0 0 32 32;" xml:space="preserve">
<style type="text/css">
	.st0{display:none;}
	.st1{display:inline;}
	.st2{fill:none;stroke:#444444;stroke-width:0.5;stroke-linecap:square;stroke-miterlimit:10;}
	.st3{fill:#444444;}
	.st4{fill:none;stroke:#444444;stroke-linecap:square;stroke-miterlimit:10;}
	.st5{font-family:'Arial-BoldMT';}
	.st6{font-size:4px;}
</style>
<g class="st0">
	<g class="st1">
		<g>
			<path d="M20.8,28.8h-1.6v-2.7c0-0.3-0.2-0.5-0.5-0.5s-0.5,0.2-0.5,0.5v3.2c0,0.3,0.2,0.5,0.5,0.5h2.1c0.6,0,1.2,0.5,1.5,1.1H9.7
				c0.3-0.6,0.9-1.1,1.5-1.1h5.3c0.3,0,0.5-0.2,0.5-0.5s-0.2-0.5-0.5-0.5h-2.7v-2.7c0-0.3-0.2-0.5-0.5-0.5s-0.5,0.2-0.5,0.5v2.7
				h-1.6c-1.4,0-2.7,1.3-2.7,2.7C8.5,31.8,8.7,32,9,32h13.9c0.3,0,0.5-0.2,0.5-0.5C23.5,30.1,22.2,28.8,20.8,28.8z"/>
			<path d="M28.3,8.5c0.1,0,0.3-0.1,0.4-0.2c0.2-0.2,0.2-0.5,0-0.8l-4.3-4.3c-0.2-0.2-0.5-0.2-0.8,0s-0.2,0.5,0,0.8l4.3,4.3
				C28,8.5,28.1,8.5,28.3,8.5z"/>
			<path d="M23.5,18.7c0-0.3-0.2-0.5-0.5-0.5H0.5c-0.3,0-0.5,0.2-0.5,0.5v3.2c0,1.4,1.3,2.7,2.7,2.7H23c0.3,0,0.5-0.2,0.5-0.5
				s-0.2-0.5-0.5-0.5H2.7c-0.8,0-1.6-0.8-1.6-1.6v-2.7H23C23.2,19.2,23.5,19,23.5,18.7z"/>
			<path d="M14.9,21.3c0,0.6,0.5,1.1,1.1,1.1s1.1-0.5,1.1-1.1s-0.5-1.1-1.1-1.1C15.4,20.3,14.9,20.7,14.9,21.3z"/>
			<path d="M30.4,18.1h-4.3c-0.9,0-1.6,0.7-1.6,1.6v10.7c0,0.9,0.7,1.6,1.6,1.6h4.3c0.9,0,1.6-0.7,1.6-1.6V19.7
				C32,18.9,31.3,18.1,30.4,18.1z M30.9,30.4c0,0.3-0.2,0.5-0.5,0.5h-4.3c-0.3,0-0.5-0.2-0.5-0.5V19.7c0-0.3,0.2-0.5,0.5-0.5h4.3
				c0.3,0,0.5,0.2,0.5,0.5L30.9,30.4L30.9,30.4z"/>
			<path d="M29.3,0H2.7C1.3,0,0,1.3,0,2.7v13.9c0,0.3,0.2,0.5,0.5,0.5S1,16.9,1,16.6V2.7c0-0.8,0.8-1.6,1.6-1.6h26.7
				c0.8,0,1.6,0.8,1.6,1.6v13.9c0,0.3,0.2,0.5,0.5,0.5s0.5-0.2,0.5-0.5V2.7C32,1.3,30.7,0,29.3,0z"/>
			<path d="M28.3,28.8L28.3,28.8c-0.3,0-0.5,0.2-0.5,0.5s0.2,0.5,0.5,0.5s0.5-0.2,0.5-0.5S28.6,28.8,28.3,28.8z"/>
			<path d="M28.3,5.3c0.1,0,0.3-0.1,0.4-0.2c0.2-0.2,0.2-0.5,0-0.8l-1.1-1.1c-0.2-0.2-0.5-0.2-0.8,0s-0.2,0.5,0,0.8l1.1,1.1
				C28,5.3,28.1,5.3,28.3,5.3z"/>
		</g>
	</g>
</g>
<g>
	<circle class="st2" cx="6" cy="13.5" r="1.6"/>
	<circle class="st3" cx="6" cy="13.5" r="0.8"/>
	<path class="st4" d="M28.2,16.9H3.8c-1,0-1.9-0.8-1.9-1.9v-3c0-1,0.8-1.9,1.9-1.9h24.3c1,0,1.9,0.8,1.9,1.9v3
		C30,16.1,29.2,16.9,28.2,16.9z"/>
	<text transform="matrix(1 0 0 1 9.2969 14.8047)" class="st3 st5 st6">Approved</text>
	<circle class="st2" cx="6" cy="22.5" r="1.6"/>
	<path class="st4" d="M28.2,25.9H3.8c-1,0-1.9-0.8-1.9-1.9v-3c0-1,0.8-1.9,1.9-1.9h24.3c1,0,1.9,0.8,1.9,1.9v3
		C30,25.1,29.2,25.9,28.2,25.9z"/>
	<text transform="matrix(1 0 0 1 9.2969 23.8047)" class="st3 st5 st6">Manually</text>
	<g>
		<g>
			<path class="st3" d="M30,1c0.6,0,1,0.4,1,1v28c0,0.6-0.4,1-1,1H2c-0.6,0-1-0.4-1-1V2c0-0.6,0.4-1,1-1H30 M30,0H2C0.9,0,0,0.9,0,2
				v28c0,1.1,0.9,2,2,2h28c1.1,0,2-0.9,2-2V2C32,0.9,31.1,0,30,0L30,0z"/>
		</g>
		<line class="st4" x1="0.9" y1="4.1" x2="31" y2="4.1"/>
		<line class="st4" x1="20.3" y1="0.8" x2="20.3" y2="4.1"/>
		<g>
			<circle class="st3" cx="23.6" cy="2.2" r="0.6"/>
			<circle class="st3" cx="25.6" cy="2.2" r="0.6"/>
			<circle class="st3" cx="27.6" cy="2.2" r="0.6"/>
		</g>
	</g>
</g>
</svg>
