<?xml version="1.0" encoding="utf-8"?>
<!-- Generator: Adobe Illustrator 19.2.1, SVG Export Plug-In . SVG Version: 6.00 Build 0)  -->
<svg version="1.1" id="Layer_1" xmlns="http://www.w3.org/2000/svg" xmlns:xlink="http://www.w3.org/1999/xlink" x="0px" y="0px"
	 viewBox="0 0 32 32" style="enable-background:new 0 0 32 32;" xml:space="preserve">
<style type="text/css">
	.st0{fill:none;stroke:#444444;stroke-linecap:round;stroke-miterlimit:10;}
	.st1{fill:none;stroke:#444444;stroke-linecap:square;stroke-miterlimit:10;}
	.st2{fill:#444444;}
	.st3{font-family:'MyriadPro-Regular';}
	.st4{font-size:8.0901px;}
</style>
<path class="st0" d="M20.3,25H3c-1.1,0-2-0.9-2-2V4c0-1.1,0.9-2,2-2h26c1.1,0,2,0.9,2,2v10.3"/>
<line class="st0" x1="1" y1="19" x2="20.3" y2="19"/>
<line class="st1" x1="19" y1="25" x2="19" y2="30"/>
<line class="st1" x1="13" y1="30" x2="13" y2="25"/>
<line class="st0" x1="9" y1="30" x2="20.3" y2="30"/>
<line class="st0" x1="15" y1="6" x2="17" y2="6"/>
<path class="st1" d="M30.1,30.4h-6.8c-0.7,0-1.3-0.6-1.3-1.3V17.3c0-0.7,0.6-1.3,1.3-1.3h6.8c0.7,0,1.3,0.6,1.3,1.3V29
	C31.4,29.8,30.8,30.4,30.1,30.4z"/>
<circle class="st2" cx="26.7" cy="28.5" r="0.5"/>
<text transform="matrix(1 0 0 1 10.4058 14.3747)" class="st2 st3 st4">API</text>
</svg>
