<?xml version="1.0" encoding="utf-8"?>
<!-- Generator: Adobe Illustrator 19.2.1, SVG Export Plug-In . SVG Version: 6.00 Build 0)  -->
<svg version="1.1" id="Capa_1" xmlns="http://www.w3.org/2000/svg" xmlns:xlink="http://www.w3.org/1999/xlink" x="0px" y="0px"
	 viewBox="0 0 32 32" style="enable-background:new 0 0 32 32;" xml:space="preserve">
<style type="text/css">
	.st0{fill:none;stroke:#0080FF;stroke-linecap:round;stroke-miterlimit:10;}
	.st1{fill:none;stroke:#0080FF;stroke-miterlimit:10;}
	.st2{fill:#0080FF;}
	.st3{fill:none;stroke:#0080FF;stroke-linecap:square;stroke-miterlimit:10;}
</style>
<g>
	<path class="st0" d="M24.7,18.3c0.1-0.5,0.1-0.6,0.1-1.1c0.1-5.5-4.3-10-9.7-10.1C9.6,7,5.1,11.3,5,16.8c-0.1,3.1,1.3,5.9,3.5,7.7
		c0.1-0.1,0.3-0.2,0.5-0.3l2.9-1.6c0.4-0.2,0.6-0.6,0.6-1.1v-1.2c0,0-0.9-1-1.2-2.5c-0.3-0.2-0.5-0.5-0.5-0.8v-1.3
		c0-0.3,0.1-0.6,0.3-0.7V13c0,0-0.4-3,3.6-3s3.6,3,3.6,3v1.9c0.2,0.2,0.3,0.4,0.3,0.7V17c0,0.4-0.3,0.8-0.7,0.9
		c-0.2,0.7-0.6,1.4-1,2c-0.1,0.2-0.2,0.3-0.3,0.4v1.2"/>
	<circle class="st1" cx="22.5" cy="23.9" r="4.5"/>
	<path class="st2" d="M23.1,23.9l1.3-1.3c0.1-0.1,0.1-0.4,0-0.5c-0.1-0.1-0.4-0.1-0.5,0l-1.3,1.3L21.2,22c-0.1-0.1-0.4-0.1-0.5,0
		s-0.1,0.4,0,0.5l1.3,1.3l-1.3,1.3c-0.1,0.1-0.1,0.4,0,0.5c0.1,0.1,0.2,0.1,0.3,0.1s0.2,0,0.3-0.1l1.3-1.3l1.3,1.3
		c0.1,0.1,0.2,0.1,0.3,0.1c0.1,0,0.2,0,0.3-0.1c0.1-0.1,0.1-0.4,0-0.5L23.1,23.9z"/>
</g>
<g>
	<g>
		<path class="st2" d="M30,1c0.6,0,1,0.4,1,1v28c0,0.6-0.4,1-1,1H2c-0.6,0-1-0.4-1-1V2c0-0.6,0.4-1,1-1H30 M30,0H2C0.9,0,0,0.9,0,2
			v28c0,1.1,0.9,2,2,2h28c1.1,0,2-0.9,2-2V2C32,0.9,31.1,0,30,0L30,0z"/>
	</g>
	<line class="st3" x1="0.9" y1="4.1" x2="31" y2="4.1"/>
	<line class="st3" x1="20.3" y1="0.8" x2="20.3" y2="4.1"/>
	<g>
		<circle class="st2" cx="23.6" cy="2.2" r="0.6"/>
		<circle class="st2" cx="25.6" cy="2.2" r="0.6"/>
		<circle class="st2" cx="27.6" cy="2.2" r="0.6"/>
	</g>
</g>
</svg>
