<?xml version="1.0" encoding="utf-8"?>
<!-- Generator: Adobe Illustrator 19.2.1, SVG Export Plug-In . SVG Version: 6.00 Build 0)  -->
<svg version="1.1" id="Layer_1" xmlns="http://www.w3.org/2000/svg" xmlns:xlink="http://www.w3.org/1999/xlink" x="0px" y="0px"
	 viewBox="0 0 32 32" style="enable-background:new 0 0 32 32;" xml:space="preserve">
<style type="text/css">
	.st0{fill:#0080FF;}
	.st1{fill:none;stroke:#0080FF;stroke-linecap:square;stroke-miterlimit:10;}
</style>
<g>
	<g>
		<g>
			<path class="st0" d="M30,1c0.6,0,1,0.4,1,1v28c0,0.6-0.4,1-1,1H2c-0.6,0-1-0.4-1-1V2c0-0.6,0.4-1,1-1H30 M30,0H2C0.9,0,0,0.9,0,2
				v28c0,1.1,0.9,2,2,2h28c1.1,0,2-0.9,2-2V2C32,0.9,31.1,0,30,0L30,0z"/>
		</g>
		<line class="st1" x1="0.9" y1="4.1" x2="31" y2="4.1"/>
		<line class="st1" x1="20.3" y1="0.8" x2="20.3" y2="4.1"/>
		<g>
			<circle class="st0" cx="23.6" cy="2.2" r="0.6"/>
			<circle class="st0" cx="25.6" cy="2.2" r="0.6"/>
			<circle class="st0" cx="27.6" cy="2.2" r="0.6"/>
		</g>
	</g>
	<path class="st1" d="M21,19c-0.3-0.3-0.7-0.3-0.8,0l-3.4,3.4c-0.3-0.1-0.6-0.2-0.8-0.2c-1,0-1.9,0.8-1.9,1.9c0,1,0.8,1.9,1.9,1.9
		s1.9-0.8,1.9-1.9c0-0.3-0.1-0.6-0.2-0.8l3.4-3.4C21.2,19.7,21.2,19.3,21,19z"/>
	<path class="st0" d="M16,24.7c-0.4,0-0.7-0.3-0.7-0.7s0.3-0.7,0.7-0.7s0.7,0.3,0.7,0.7C16.7,24.4,16.4,24.7,16,24.7z"/>
	<path class="st1" d="M24.3,24.1c0,0.4,0.3,0.7,0.7,0.7h4.4c0.4,0,0.7-0.3,0.7-0.7c0,0,0,0,0-0.1c0-3.8-1.6-7.3-4-9.8
		c0,0,0-0.1-0.1-0.1c0,0,0,0-0.1-0.1c-2.5-2.3-6-3.9-9.8-3.9s-7.3,1.6-9.8,4c0,0-0.1,0-0.1,0.1c0,0,0,0-0.1,0.1c-2.5,2.5-4,6-4,9.8
		c0,0.4,0.3,0.7,0.7,0.7H7c0.4,0,0.7-0.3,0.7-0.7c0-4.6,3.7-8.3,8.3-8.3S24.3,19.5,24.3,24.1z"/>
	<line class="st1" x1="21.9" y1="18.2" x2="26" y2="14.2"/>
	<line class="st1" x1="16" y1="15.8" x2="16" y2="10.1"/>
	<line class="st1" x1="10.1" y1="18.2" x2="6.2" y2="14.1"/>
</g>
</svg>
